<mxfile host="app.diagrams.net" modified="2024-04-09T14:30:11.250Z" agent="Mozilla/5.0 (Windows NT 10.0; Win64; x64) AppleWebKit/537.36 (KHTML, like Gecko) Chrome/123.0.0.0 Safari/537.36 Edg/123.0.0.0" etag="Qa7klAsK3RkffLKCbPE3" version="24.2.1" type="device">
  <diagram name="Page-1" id="rhS9JtVC_33PaL8HbyDL">
    <mxGraphModel dx="2476" dy="1828" grid="1" gridSize="10" guides="1" tooltips="1" connect="1" arrows="1" fold="1" page="1" pageScale="1" pageWidth="850" pageHeight="1100" math="0" shadow="0">
      <root>
        <mxCell id="0" />
        <mxCell id="1" parent="0" />
        <mxCell id="EvpxxNOr9Qi6KsdJ5t7L-20" style="edgeStyle=orthogonalEdgeStyle;rounded=0;orthogonalLoop=1;jettySize=auto;html=1;entryX=0.5;entryY=0;entryDx=0;entryDy=0;" parent="1" source="EvpxxNOr9Qi6KsdJ5t7L-1" target="EvpxxNOr9Qi6KsdJ5t7L-3" edge="1">
          <mxGeometry relative="1" as="geometry" />
        </mxCell>
        <mxCell id="EvpxxNOr9Qi6KsdJ5t7L-70" style="edgeStyle=orthogonalEdgeStyle;rounded=0;orthogonalLoop=1;jettySize=auto;html=1;entryX=0.5;entryY=0;entryDx=0;entryDy=0;" parent="1" source="EvpxxNOr9Qi6KsdJ5t7L-1" target="EvpxxNOr9Qi6KsdJ5t7L-69" edge="1">
          <mxGeometry relative="1" as="geometry" />
        </mxCell>
        <mxCell id="EvpxxNOr9Qi6KsdJ5t7L-1" value="user" style="rounded=0;whiteSpace=wrap;html=1;" parent="1" vertex="1">
          <mxGeometry x="620" y="-40" width="120" height="60" as="geometry" />
        </mxCell>
        <mxCell id="EvpxxNOr9Qi6KsdJ5t7L-7" value="" style="edgeStyle=orthogonalEdgeStyle;rounded=0;orthogonalLoop=1;jettySize=auto;html=1;" parent="1" source="EvpxxNOr9Qi6KsdJ5t7L-2" target="EvpxxNOr9Qi6KsdJ5t7L-6" edge="1">
          <mxGeometry relative="1" as="geometry" />
        </mxCell>
        <mxCell id="EvpxxNOr9Qi6KsdJ5t7L-2" value="repositories" style="rounded=0;whiteSpace=wrap;html=1;" parent="1" vertex="1">
          <mxGeometry y="190" width="120" height="60" as="geometry" />
        </mxCell>
        <mxCell id="EvpxxNOr9Qi6KsdJ5t7L-44" style="edgeStyle=orthogonalEdgeStyle;rounded=0;orthogonalLoop=1;jettySize=auto;html=1;entryX=0.425;entryY=0;entryDx=0;entryDy=0;entryPerimeter=0;" parent="1" source="EvpxxNOr9Qi6KsdJ5t7L-3" target="EvpxxNOr9Qi6KsdJ5t7L-46" edge="1">
          <mxGeometry relative="1" as="geometry">
            <mxPoint x="840" y="340" as="targetPoint" />
          </mxGeometry>
        </mxCell>
        <mxCell id="EvpxxNOr9Qi6KsdJ5t7L-65" style="edgeStyle=orthogonalEdgeStyle;rounded=0;orthogonalLoop=1;jettySize=auto;html=1;entryX=0.5;entryY=0;entryDx=0;entryDy=0;" parent="1" source="EvpxxNOr9Qi6KsdJ5t7L-3" target="EvpxxNOr9Qi6KsdJ5t7L-54" edge="1">
          <mxGeometry relative="1" as="geometry" />
        </mxCell>
        <mxCell id="EvpxxNOr9Qi6KsdJ5t7L-3" value="API URL" style="rounded=0;whiteSpace=wrap;html=1;" parent="1" vertex="1">
          <mxGeometry x="620" y="200" width="120" height="60" as="geometry" />
        </mxCell>
        <mxCell id="EvpxxNOr9Qi6KsdJ5t7L-11" value="" style="edgeStyle=orthogonalEdgeStyle;rounded=0;orthogonalLoop=1;jettySize=auto;html=1;" parent="1" source="EvpxxNOr9Qi6KsdJ5t7L-6" target="EvpxxNOr9Qi6KsdJ5t7L-10" edge="1">
          <mxGeometry relative="1" as="geometry" />
        </mxCell>
        <mxCell id="EvpxxNOr9Qi6KsdJ5t7L-21" value="" style="edgeStyle=orthogonalEdgeStyle;rounded=0;orthogonalLoop=1;jettySize=auto;html=1;" parent="1" source="EvpxxNOr9Qi6KsdJ5t7L-6" target="EvpxxNOr9Qi6KsdJ5t7L-12" edge="1">
          <mxGeometry relative="1" as="geometry" />
        </mxCell>
        <mxCell id="EvpxxNOr9Qi6KsdJ5t7L-22" style="edgeStyle=orthogonalEdgeStyle;rounded=0;orthogonalLoop=1;jettySize=auto;html=1;entryX=0.75;entryY=0;entryDx=0;entryDy=0;" parent="1" source="EvpxxNOr9Qi6KsdJ5t7L-6" target="EvpxxNOr9Qi6KsdJ5t7L-13" edge="1">
          <mxGeometry relative="1" as="geometry" />
        </mxCell>
        <mxCell id="EvpxxNOr9Qi6KsdJ5t7L-23" style="edgeStyle=orthogonalEdgeStyle;rounded=0;orthogonalLoop=1;jettySize=auto;html=1;" parent="1" source="EvpxxNOr9Qi6KsdJ5t7L-6" target="EvpxxNOr9Qi6KsdJ5t7L-14" edge="1">
          <mxGeometry relative="1" as="geometry" />
        </mxCell>
        <mxCell id="EvpxxNOr9Qi6KsdJ5t7L-6" value="api endpoint" style="rounded=0;whiteSpace=wrap;html=1;" parent="1" vertex="1">
          <mxGeometry x="-70" y="330" width="120" height="60" as="geometry" />
        </mxCell>
        <mxCell id="EvpxxNOr9Qi6KsdJ5t7L-35" value="" style="edgeStyle=orthogonalEdgeStyle;rounded=0;orthogonalLoop=1;jettySize=auto;html=1;" parent="1" source="EvpxxNOr9Qi6KsdJ5t7L-10" target="EvpxxNOr9Qi6KsdJ5t7L-34" edge="1">
          <mxGeometry relative="1" as="geometry" />
        </mxCell>
        <mxCell id="EvpxxNOr9Qi6KsdJ5t7L-10" value="GET" style="rounded=0;whiteSpace=wrap;html=1;" parent="1" vertex="1">
          <mxGeometry x="-330" y="460" width="120" height="60" as="geometry" />
        </mxCell>
        <mxCell id="EvpxxNOr9Qi6KsdJ5t7L-37" style="edgeStyle=orthogonalEdgeStyle;rounded=0;orthogonalLoop=1;jettySize=auto;html=1;" parent="1" source="EvpxxNOr9Qi6KsdJ5t7L-12" edge="1">
          <mxGeometry relative="1" as="geometry">
            <mxPoint x="-130" y="600" as="targetPoint" />
          </mxGeometry>
        </mxCell>
        <mxCell id="EvpxxNOr9Qi6KsdJ5t7L-12" value="POST" style="rounded=0;whiteSpace=wrap;html=1;" parent="1" vertex="1">
          <mxGeometry x="-190" y="460" width="120" height="60" as="geometry" />
        </mxCell>
        <mxCell id="EvpxxNOr9Qi6KsdJ5t7L-39" style="edgeStyle=orthogonalEdgeStyle;rounded=0;orthogonalLoop=1;jettySize=auto;html=1;" parent="1" source="EvpxxNOr9Qi6KsdJ5t7L-13" edge="1">
          <mxGeometry relative="1" as="geometry">
            <mxPoint x="30" y="600" as="targetPoint" />
          </mxGeometry>
        </mxCell>
        <mxCell id="EvpxxNOr9Qi6KsdJ5t7L-13" value="UPDATE" style="rounded=0;whiteSpace=wrap;html=1;" parent="1" vertex="1">
          <mxGeometry x="-30" y="460" width="120" height="60" as="geometry" />
        </mxCell>
        <mxCell id="EvpxxNOr9Qi6KsdJ5t7L-14" value="DELETE" style="rounded=0;whiteSpace=wrap;html=1;" parent="1" vertex="1">
          <mxGeometry x="130" y="460" width="120" height="60" as="geometry" />
        </mxCell>
        <mxCell id="EvpxxNOr9Qi6KsdJ5t7L-17" style="edgeStyle=orthogonalEdgeStyle;rounded=0;orthogonalLoop=1;jettySize=auto;html=1;entryX=0.575;entryY=0;entryDx=0;entryDy=0;entryPerimeter=0;" parent="1" source="EvpxxNOr9Qi6KsdJ5t7L-1" target="EvpxxNOr9Qi6KsdJ5t7L-2" edge="1">
          <mxGeometry relative="1" as="geometry" />
        </mxCell>
        <mxCell id="EvpxxNOr9Qi6KsdJ5t7L-34" value="Show&lt;div&gt;All Public&lt;/div&gt;&lt;div&gt;Repositories&lt;/div&gt;" style="rounded=0;whiteSpace=wrap;html=1;" parent="1" vertex="1">
          <mxGeometry x="-330" y="600" width="120" height="60" as="geometry" />
        </mxCell>
        <mxCell id="EvpxxNOr9Qi6KsdJ5t7L-38" value="Create&amp;nbsp;&lt;div&gt;New Repository&lt;/div&gt;" style="whiteSpace=wrap;html=1;" parent="1" vertex="1">
          <mxGeometry x="-190" y="600" width="120" height="60" as="geometry" />
        </mxCell>
        <mxCell id="EvpxxNOr9Qi6KsdJ5t7L-40" value="&lt;span style=&quot;color: rgb(0, 0, 0); font-family: Helvetica; font-size: 12px; font-style: normal; font-variant-ligatures: normal; font-variant-caps: normal; font-weight: 400; letter-spacing: normal; orphans: 2; text-align: center; text-indent: 0px; text-transform: none; widows: 2; word-spacing: 0px; -webkit-text-stroke-width: 0px; white-space: normal; background-color: rgb(251, 251, 251); text-decoration-thickness: initial; text-decoration-style: initial; text-decoration-color: initial; display: inline !important; float: none;&quot;&gt;UPDATE&lt;/span&gt;" style="text;whiteSpace=wrap;html=1;" parent="1" vertex="1">
          <mxGeometry x="-30" y="600" width="80" height="40" as="geometry" />
        </mxCell>
        <mxCell id="EvpxxNOr9Qi6KsdJ5t7L-41" value="Update&lt;div&gt;Repository&lt;/div&gt;" style="whiteSpace=wrap;html=1;" parent="1" vertex="1">
          <mxGeometry x="-40" y="600" width="120" height="60" as="geometry" />
        </mxCell>
        <mxCell id="EvpxxNOr9Qi6KsdJ5t7L-42" value="Delete&lt;div&gt;Repository&lt;/div&gt;" style="whiteSpace=wrap;html=1;" parent="1" vertex="1">
          <mxGeometry x="130" y="600" width="120" height="60" as="geometry" />
        </mxCell>
        <mxCell id="EvpxxNOr9Qi6KsdJ5t7L-43" style="edgeStyle=orthogonalEdgeStyle;rounded=0;orthogonalLoop=1;jettySize=auto;html=1;entryX=0.5;entryY=0;entryDx=0;entryDy=0;" parent="1" source="EvpxxNOr9Qi6KsdJ5t7L-14" target="EvpxxNOr9Qi6KsdJ5t7L-42" edge="1">
          <mxGeometry relative="1" as="geometry" />
        </mxCell>
        <mxCell id="EvpxxNOr9Qi6KsdJ5t7L-50" style="edgeStyle=orthogonalEdgeStyle;rounded=0;orthogonalLoop=1;jettySize=auto;html=1;entryX=0.5;entryY=0;entryDx=0;entryDy=0;" parent="1" source="EvpxxNOr9Qi6KsdJ5t7L-46" target="EvpxxNOr9Qi6KsdJ5t7L-51" edge="1">
          <mxGeometry relative="1" as="geometry">
            <mxPoint x="850" y="460" as="targetPoint" />
          </mxGeometry>
        </mxCell>
        <mxCell id="EvpxxNOr9Qi6KsdJ5t7L-46" value="Base URL" style="rounded=0;whiteSpace=wrap;html=1;" parent="1" vertex="1">
          <mxGeometry x="420" y="340" width="120" height="60" as="geometry" />
        </mxCell>
        <mxCell id="EvpxxNOr9Qi6KsdJ5t7L-48" style="edgeStyle=orthogonalEdgeStyle;rounded=0;orthogonalLoop=1;jettySize=auto;html=1;entryX=0.6;entryY=0.033;entryDx=0;entryDy=0;entryPerimeter=0;" parent="1" source="EvpxxNOr9Qi6KsdJ5t7L-47" target="EvpxxNOr9Qi6KsdJ5t7L-49" edge="1">
          <mxGeometry relative="1" as="geometry">
            <mxPoint x="980" y="460" as="targetPoint" />
          </mxGeometry>
        </mxCell>
        <mxCell id="EvpxxNOr9Qi6KsdJ5t7L-47" value="ENDPOINT" style="rounded=0;whiteSpace=wrap;html=1;" parent="1" vertex="1">
          <mxGeometry x="600" y="340" width="120" height="60" as="geometry" />
        </mxCell>
        <mxCell id="EvpxxNOr9Qi6KsdJ5t7L-49" value="https://api.github.com/&lt;div&gt;users/xDAnkit&lt;/div&gt;" style="rounded=0;whiteSpace=wrap;html=1;" parent="1" vertex="1">
          <mxGeometry x="570" y="470" width="150" height="60" as="geometry" />
        </mxCell>
        <mxCell id="EvpxxNOr9Qi6KsdJ5t7L-51" value="https://api.github.com" style="rounded=0;whiteSpace=wrap;html=1;" parent="1" vertex="1">
          <mxGeometry x="420" y="470" width="120" height="60" as="geometry" />
        </mxCell>
        <mxCell id="EvpxxNOr9Qi6KsdJ5t7L-52" style="edgeStyle=orthogonalEdgeStyle;rounded=0;orthogonalLoop=1;jettySize=auto;html=1;entryX=0.4;entryY=-0.083;entryDx=0;entryDy=0;entryPerimeter=0;" parent="1" source="EvpxxNOr9Qi6KsdJ5t7L-3" target="EvpxxNOr9Qi6KsdJ5t7L-47" edge="1">
          <mxGeometry relative="1" as="geometry" />
        </mxCell>
        <mxCell id="EvpxxNOr9Qi6KsdJ5t7L-59" value="" style="edgeStyle=orthogonalEdgeStyle;rounded=0;orthogonalLoop=1;jettySize=auto;html=1;" parent="1" source="EvpxxNOr9Qi6KsdJ5t7L-54" target="EvpxxNOr9Qi6KsdJ5t7L-56" edge="1">
          <mxGeometry relative="1" as="geometry" />
        </mxCell>
        <mxCell id="EvpxxNOr9Qi6KsdJ5t7L-54" value="PATH PARAMETERS" style="rounded=0;whiteSpace=wrap;html=1;" parent="1" vertex="1">
          <mxGeometry x="790" y="340" width="120" height="60" as="geometry" />
        </mxCell>
        <mxCell id="EvpxxNOr9Qi6KsdJ5t7L-56" value="REPOS&lt;div&gt;https://api.github.com/users/xDankit/repos&lt;/div&gt;" style="rounded=0;whiteSpace=wrap;html=1;" parent="1" vertex="1">
          <mxGeometry x="740" y="470" width="240" height="60" as="geometry" />
        </mxCell>
        <mxCell id="EvpxxNOr9Qi6KsdJ5t7L-67" value="" style="edgeStyle=orthogonalEdgeStyle;rounded=0;orthogonalLoop=1;jettySize=auto;html=1;" parent="1" source="EvpxxNOr9Qi6KsdJ5t7L-61" target="EvpxxNOr9Qi6KsdJ5t7L-62" edge="1">
          <mxGeometry relative="1" as="geometry" />
        </mxCell>
        <mxCell id="EvpxxNOr9Qi6KsdJ5t7L-61" value="QUERY PARAMETERS" style="rounded=0;whiteSpace=wrap;html=1;" parent="1" vertex="1">
          <mxGeometry x="960" y="340" width="120" height="60" as="geometry" />
        </mxCell>
        <mxCell id="EvpxxNOr9Qi6KsdJ5t7L-62" value="https://api/github.com/users/xDAnkit?type=public" style="rounded=0;whiteSpace=wrap;html=1;" parent="1" vertex="1">
          <mxGeometry x="990" y="470" width="220" height="60" as="geometry" />
        </mxCell>
        <mxCell id="EvpxxNOr9Qi6KsdJ5t7L-66" style="edgeStyle=orthogonalEdgeStyle;rounded=0;orthogonalLoop=1;jettySize=auto;html=1;entryX=0.592;entryY=-0.017;entryDx=0;entryDy=0;entryPerimeter=0;" parent="1" source="EvpxxNOr9Qi6KsdJ5t7L-3" target="EvpxxNOr9Qi6KsdJ5t7L-61" edge="1">
          <mxGeometry relative="1" as="geometry" />
        </mxCell>
        <mxCell id="EvpxxNOr9Qi6KsdJ5t7L-69" value="MIDDLEWARE" style="rounded=0;whiteSpace=wrap;html=1;" parent="1" vertex="1">
          <mxGeometry x="1275" y="210" width="120" height="60" as="geometry" />
        </mxCell>
      </root>
    </mxGraphModel>
  </diagram>
</mxfile>
